<?xml version="1.0" standalone="no"?>
<!DOCTYPE svg PUBLIC "-//W3C//DTD SVG 20010904//EN"
 "http://www.w3.org/TR/2001/REC-SVG-20010904/DTD/svg10.dtd">
<svg version="1.0" xmlns="http://www.w3.org/2000/svg"
 width="500.000000pt" height="500.000000pt" viewBox="0 0 500.000000 500.000000"
 preserveAspectRatio="xMidYMid meet">

<g transform="translate(0.000000,500.000000) scale(0.100000,-0.100000)"
fill="#000000" stroke="none">
<path d="M2260 3834 c-36 -7 -67 -13 -70 -14 -3 -1 -12 -2 -22 -1 -9 1 -19 -3
-23 -9 -3 -5 -17 -10 -31 -10 -14 0 -23 -4 -20 -9 5 -8 224 34 235 44 10 10
-7 10 -69 -1z"/>
<path d="M2418 3843 c7 -3 16 -2 19 1 4 3 -2 6 -13 5 -11 0 -14 -3 -6 -6z"/>
<path d="M2658 3843 c7 -3 16 -2 19 1 4 3 -2 6 -13 5 -11 0 -14 -3 -6 -6z"/>
<path d="M2700 3840 c20 -13 40 -13 40 0 0 6 -12 10 -27 10 -22 0 -25 -2 -13
-10z"/>
<path d="M2804 3829 c-3 -5 1 -9 10 -9 8 0 21 -3 30 -6 9 -3 16 -2 16 4 0 13
-49 22 -56 11z"/>
<path d="M2906 3802 c-6 -11 44 -32 75 -32 9 0 19 -4 21 -9 5 -15 107 -61 113
-52 5 9 -32 27 -47 23 -5 -1 -8 4 -8 12 0 7 -27 23 -62 36 -35 13 -68 25 -74
27 -7 2 -15 0 -18 -5z"/>
<path d="M2065 3780 c3 -5 11 -10 16 -10 6 0 7 5 4 10 -3 6 -11 10 -16 10 -6
0 -7 -4 -4 -10z"/>
<path d="M1998 3767 c-16 -6 -28 -19 -28 -29 0 -26 16 -22 52 12 32 31 24 36
-24 17z"/>
<path d="M1900 3724 c-36 -20 -40 -24 -20 -24 23 0 23 0 4 -15 -15 -12 -11
-12 18 1 20 10 35 21 32 26 -3 4 2 5 10 2 11 -4 16 0 16 15 0 25 -3 25 -60 -5z"/>
<path d="M3144 3685 c11 -8 29 -15 40 -15 10 0 16 -3 13 -6 -3 -4 13 -20 36
-37 97 -69 213 -176 275 -253 91 -111 167 -221 186 -268 30 -73 82 -276 107
-416 19 -111 27 -313 14 -370 -4 -14 -11 -55 -16 -92 -10 -67 -45 -173 -93
-282 -31 -70 -31 -66 -7 -66 15 0 24 15 41 63 71 206 96 345 95 542 -1 88 -4
178 -8 200 -33 186 -83 363 -134 470 -40 86 -88 159 -109 170 -11 6 -19 15
-17 20 12 37 -370 356 -425 355 -15 -1 -15 -3 2 -15z"/>
<path d="M1815 3677 c-36 -22 -235 -179 -235 -186 0 -3 -10 -11 -22 -16 -13
-6 -22 -17 -20 -24 1 -7 -2 -10 -7 -7 -5 3 -29 -18 -53 -46 -23 -29 -46 -54
-50 -56 -5 -2 -8 -10 -8 -18 0 -8 -4 -14 -8 -14 -14 0 -62 -81 -55 -92 3 -6 1
-8 -4 -5 -13 8 -76 -109 -67 -125 4 -6 3 -8 -3 -5 -11 7 -33 -33 -33 -58 0 -8
-4 -15 -10 -15 -5 0 -10 -4 -10 -10 0 -5 6 -10 14 -10 8 0 29 33 48 73 36 76
111 197 159 258 16 20 26 39 24 43 -3 3 -2 4 2 1 3 -3 50 37 103 89 53 51 128
115 168 141 40 26 72 52 72 56 0 5 3 8 8 7 4 -2 8 1 9 6 1 5 7 13 15 17 22 14
-13 10 -37 -4z"/>
<path d="M2185 3557 c-37 -37 -59 -48 -137 -71 -232 -70 -258 -96 -358 -366
-54 -144 -73 -182 -120 -245 -41 -53 -54 -95 -89 -275 -11 -58 -28 -139 -36
-180 -14 -63 -14 -91 -5 -180 6 -58 10 -145 8 -195 l-3 -90 -39 83 c-22 45
-41 80 -44 77 -2 -2 21 -56 52 -120 34 -69 56 -128 56 -148 0 -26 6 -37 26
-47 14 -8 38 -35 52 -60 26 -43 27 -51 26 -183 -1 -150 8 -165 32 -50 27 130
99 238 176 265 26 9 28 13 28 67 0 31 5 94 10 139 6 46 14 142 19 215 7 104
15 150 37 217 l29 84 6 -99 c4 -55 7 -190 8 -301 0 -111 4 -222 7 -247 6 -45
7 -45 40 -40 48 8 82 -4 98 -35 l15 -27 1 37 c0 24 8 47 23 64 20 23 34 28 84
32 59 4 84 -6 95 -40 3 -9 14 -9 49 1 89 25 157 -15 194 -114 20 -50 20 -50
55 -30 58 33 133 6 164 -60 10 -20 20 -61 23 -91 5 -43 9 -54 22 -52 8 2 19
14 22 28 33 116 43 143 74 183 20 26 54 54 80 67 39 19 45 26 45 53 0 18 7 84
16 147 8 63 14 133 14 155 -1 22 -1 130 -1 240 l1 200 30 -50 c16 -27 33 -66
36 -85 4 -19 16 -57 26 -85 17 -41 19 -64 14 -130 -5 -56 -2 -100 8 -143 10
-44 13 -94 9 -166 l-5 -104 41 -7 c78 -13 83 -27 79 -207 l-3 -157 27 52 c23
44 27 65 28 138 0 124 19 346 33 388 7 20 23 41 37 48 33 17 99 16 132 -1 25
-13 27 -13 33 12 4 15 3 92 -1 172 -7 157 -12 177 -88 375 -26 66 -53 148 -61
183 -8 34 -26 84 -39 110 -13 26 -36 87 -51 137 -32 105 -124 291 -163 328
-31 30 -196 106 -322 149 -46 16 -94 38 -105 48 -25 24 -53 25 -119 5 -63 -19
-192 -19 -276 0 -36 8 -75 17 -88 20 -17 4 -33 -5 -67 -38z"/>
<path d="M3195 3494 c6 -5 23 -20 40 -34 29 -24 29 -24 10 -2 -11 13 -29 28
-40 34 -11 6 -15 6 -10 2z"/>
<path d="M1639 3423 c-13 -16 -12 -17 4 -4 9 7 17 15 17 17 0 8 -8 3 -21 -13z"/>
<path d="M3290 3416 c0 -2 8 -10 18 -17 15 -13 16 -12 3 4 -13 16 -21 21 -21
13z"/>
<path d="M1574 3361 c-22 -25 -50 -62 -63 -81 l-22 -35 23 30 c13 16 43 51 67
77 24 27 42 50 40 52 -2 2 -22 -17 -45 -43z"/>
<path d="M1613 3313 c-62 -67 -98 -121 -42 -63 79 82 103 110 94 110 -4 0 -28
-21 -52 -47z"/>
<path d="M1452 3203 c-28 -41 -97 -170 -84 -158 6 6 26 37 44 70 19 33 42 72
52 88 10 15 16 27 13 27 -3 0 -14 -12 -25 -27z"/>
<path d="M3460 3226 c0 -2 8 -10 18 -17 15 -13 16 -12 3 4 -13 16 -21 21 -21
13z"/>
<path d="M1205 2941 c-13 -30 -15 -46 -8 -68 l10 -28 8 35 c4 19 11 40 15 45
4 6 11 20 14 33 13 39 -19 25 -39 -17z"/>
<path d="M3626 2911 c10 -37 33 -88 33 -71 0 8 -9 33 -20 55 -10 22 -16 29
-13 16z"/>
<path d="M1175 2837 c-9 -27 -13 -117 -5 -122 4 -3 7 9 6 25 -1 17 2 30 7 30
4 0 5 4 2 10 -3 5 1 20 10 34 14 21 14 24 0 30 -9 3 -18 0 -20 -7z m12 -19
c-3 -8 -6 -5 -6 6 -1 11 2 17 5 13 3 -3 4 -12 1 -19z"/>
<path d="M3665 2791 c3 -18 10 -74 17 -125 6 -50 15 -95 21 -101 6 -6 7 -3 4
10 -3 11 -11 63 -17 115 -7 52 -16 104 -21 115 -7 15 -8 12 -4 -14z"/>
<path d="M1242 2709 c-7 -36 -11 -81 -11 -100 1 -21 7 -4 15 46 8 44 13 89 11
100 -1 11 -8 -10 -15 -46z"/>
<path d="M1158 2573 c-3 -71 -3 -134 0 -140 12 -35 17 -1 20 127 2 80 -1 140
-6 140 -5 0 -12 -57 -14 -127z"/>
<path d="M3753 2540 c0 -25 2 -35 4 -22 2 12 2 32 0 45 -2 12 -4 2 -4 -23z"/>
<path d="M3702 2505 c0 -16 2 -22 5 -12 2 9 2 23 0 30 -3 6 -5 -1 -5 -18z"/>
<path d="M1293 2440 c0 -41 2 -58 4 -37 2 20 2 54 0 75 -2 20 -4 3 -4 -38z"/>
<path d="M3702 2445 c0 -16 2 -22 5 -12 2 9 2 23 0 30 -3 6 -5 -1 -5 -18z"/>
<path d="M1160 2347 c0 -37 4 -67 9 -67 5 0 7 -9 4 -20 -5 -20 17 -110 27
-110 3 0 6 -14 7 -32 7 -89 108 -308 144 -308 10 0 19 2 19 4 0 2 -27 56 -60
119 -33 62 -60 123 -60 134 0 11 -3 23 -7 27 -5 4 -13 29 -20 54 -6 26 -17 65
-23 87 -6 22 -12 66 -13 97 -1 31 -8 63 -15 70 -9 9 -12 -1 -12 -55z"/>
<path d="M3742 2365 c0 -16 2 -22 5 -12 2 9 2 23 0 30 -3 6 -5 -1 -5 -18z"/>
<path d="M3692 2340 c0 -14 2 -19 5 -12 2 6 2 18 0 25 -3 6 -5 1 -5 -13z"/>
<path d="M1302 2320 c0 -19 2 -27 5 -17 2 9 2 25 0 35 -3 9 -5 1 -5 -18z"/>
<path d="M3732 2300 c0 -14 2 -19 5 -12 2 6 2 18 0 25 -3 6 -5 1 -5 -13z"/>
<path d="M3722 2245 c0 -16 2 -22 5 -12 2 9 2 23 0 30 -3 6 -5 -1 -5 -18z"/>
<path d="M3674 2067 c-12 -34 -24 -71 -28 -82 -5 -13 -2 -12 8 5 17 27 50 129
44 135 -2 2 -13 -24 -24 -58z"/>
<path d="M746 1938 c-46 -163 -90 -249 -176 -341 -83 -88 -93 -85 -86 26 3 45
8 160 11 255 l6 172 -64 0 -64 0 -7 -46 c-3 -26 -3 -144 1 -263 l6 -217 -64 4
c-55 3 -67 1 -86 -18 -13 -11 -23 -27 -23 -36 0 -26 61 -54 116 -54 61 0 63
-4 65 -115 2 -128 16 -148 85 -131 24 6 24 8 24 134 l0 127 118 1 c98 0 127 4
177 23 33 13 64 27 70 32 18 17 25 9 25 -31 0 -76 21 -143 55 -177 59 -59 127
-36 161 53 15 38 19 43 25 28 4 -11 8 -35 8 -54 2 -62 11 -80 40 -80 14 0 31
4 38 8 7 4 21 51 33 104 21 97 57 214 80 259 29 58 76 119 92 119 24 0 29 -37
31 -247 2 -167 4 -184 23 -210 42 -57 117 -39 165 41 17 28 33 53 35 55 2 2
13 -8 25 -22 27 -35 72 -36 102 -3 12 13 35 51 51 85 17 34 34 61 39 61 5 0 6
-30 2 -67 -11 -119 -8 -114 -93 -158 -116 -61 -153 -135 -97 -190 18 -19 35
-25 70 -25 99 0 176 81 220 233 13 47 26 65 73 107 l57 51 10 -78 c10 -76 10
-77 42 -84 20 -4 36 -2 41 5 5 6 12 45 15 86 15 174 96 390 147 390 32 0 59
-166 60 -368 l0 -93 27 3 c24 3 28 10 50 92 50 191 112 263 127 149 19 -138
51 -219 91 -229 45 -11 69 3 110 66 l39 60 16 -42 c13 -37 20 -43 48 -46 41
-4 55 7 101 78 l35 55 7 -30 c4 -16 7 -48 8 -70 2 -66 30 -158 56 -184 31 -32
77 -32 111 0 14 13 50 73 79 133 l52 109 12 -93 c7 -52 14 -97 17 -102 3 -4
18 -8 35 -8 27 0 29 2 30 43 0 23 3 59 7 80 l7 37 36 -30 c46 -37 79 -50 131
-50 55 0 104 26 141 74 l31 42 29 -59 c35 -70 73 -97 138 -97 59 0 83 19 151
116 28 40 54 72 56 69 3 -2 -1 -46 -8 -96 -9 -67 -9 -94 -1 -102 22 -22 39 18
60 138 11 66 26 178 32 248 l12 128 51 -6 c28 -4 52 -8 54 -10 1 -1 -5 -47
-14 -101 -9 -54 -17 -157 -18 -229 -1 -126 0 -132 29 -190 37 -74 69 -93 126
-76 24 7 49 26 69 51 63 80 166 348 142 372 -18 18 -25 5 -67 -117 -45 -129
-96 -233 -131 -266 -25 -23 -26 -23 -39 -5 -32 43 -32 255 0 454 21 127 18
132 -71 132 -35 0 -81 7 -103 16 -22 8 -50 14 -63 12 -21 -3 -24 -9 -31 -88
-18 -198 -12 -179 -93 -289 -87 -117 -118 -145 -144 -131 -23 12 -49 89 -57
166 l-6 61 49 24 c108 53 135 180 52 242 -24 18 -32 19 -67 9 -73 -23 -130
-118 -146 -247 -16 -133 -111 -248 -179 -217 -30 13 -119 128 -111 142 3 6 13
10 21 10 53 0 162 88 200 161 38 74 13 153 -51 165 -50 9 -91 -11 -153 -75
l-53 -55 3 160 3 159 -30 3 c-16 1 -35 -1 -42 -6 -15 -10 -30 -138 -39 -337
l-7 -150 -54 -109 c-30 -60 -66 -129 -80 -153 -50 -86 -55 -61 -41 216 6 125
9 235 5 244 -10 26 -174 24 -225 -2 -52 -28 -110 -123 -112 -184 0 -24 -67
-157 -93 -184 -44 -49 -62 -17 -76 132 -11 118 -22 151 -55 166 -33 15 -80
-12 -121 -68 -16 -23 -33 -42 -36 -42 -3 -1 -9 31 -13 71 -7 81 -34 151 -64
167 -50 27 -111 5 -158 -56 l-29 -38 -5 70 c-5 67 -6 70 -31 73 -44 5 -55 -17
-67 -140 -7 -63 -12 -136 -12 -162 0 -44 -4 -53 -44 -92 -24 -24 -48 -44 -53
-44 -6 0 -8 58 -5 154 6 195 3 206 -47 206 -21 0 -41 -3 -45 -7 -4 -5 -29 -8
-56 -8 -96 0 -176 -91 -201 -229 -19 -103 -87 -236 -122 -236 -29 0 -39 48
-36 180 3 221 0 255 -32 288 -24 26 -70 29 -109 6 -25 -15 -59 -61 -115 -155
l-20 -34 -3 113 -3 112 -38 0 c-47 0 -46 2 -62 -175 -12 -125 -14 -134 -61
-227 -26 -54 -53 -98 -59 -98 -34 0 -51 168 -40 385 4 80 4 80 -22 83 -29 4
-36 -13 -60 -138 l-12 -65 -69 -35 c-61 -30 -80 -35 -162 -38 -51 -3 -100 -2
-109 2 -11 4 10 31 83 103 84 82 106 112 141 183 44 91 81 219 81 282 0 35 -2
38 -29 38 -28 0 -29 -2 -65 -132z m2962 -177 c13 -86 -65 -181 -176 -215 l-22
-8 19 52 c39 101 122 204 161 197 8 -1 17 -13 18 -26z m312 -20 c15 -29 12
-71 -9 -118 -18 -39 -56 -72 -69 -59 -8 9 13 114 32 159 17 41 30 46 46 18z
m-2112 -59 c4 -26 -20 -92 -81 -223 -47 -101 -61 -119 -80 -100 -8 8 -8 32 0
89 17 108 38 172 73 221 25 34 36 42 58 39 19 -2 28 -10 30 -26z m1190 6 c22
-22 13 -51 -56 -188 -81 -163 -97 -172 -96 -55 1 65 6 92 29 143 27 60 73 112
99 112 6 0 17 -5 24 -12z m-2766 -190 c53 -16 48 -42 -8 -46 -44 -3 -71 16
-60 43 7 18 17 19 68 3z m1514 -321 c-31 -106 -73 -141 -118 -100 -43 39 -5
120 77 165 48 26 50 26 53 8 2 -11 -4 -44 -12 -73z"/>
<path d="M3606 2045 c-9 -26 -7 -32 5 -12 6 10 9 21 6 23 -2 3 -7 -2 -11 -11z"/>
<path d="M1320 2034 c0 -6 7 -19 16 -30 14 -18 14 -18 3 6 -14 31 -19 36 -19
24z"/>
<path d="M3575 1969 c-4 -6 -5 -12 -2 -15 2 -3 7 2 10 11 7 17 1 20 -8 4z"/>
<path d="M1360 1957 c0 -13 74 -137 82 -137 4 0 -7 24 -26 53 -18 28 -38 61
-44 72 -6 11 -12 16 -12 12z"/>
<path d="M3600 1900 c-6 -11 -8 -20 -6 -20 3 0 10 9 16 20 6 11 8 20 6 20 -3
0 -10 -9 -16 -20z"/>
<path d="M937 1864 c-4 -4 -7 -18 -7 -31 0 -21 4 -24 33 -21 27 2 32 7 32 28
0 19 -6 26 -25 28 -14 2 -29 0 -33 -4z"/>
<path d="M2327 1550 c-22 -77 -22 -80 8 -80 24 0 25 2 25 70 0 39 -4 70 -8 70
-5 0 -16 -27 -25 -60z"/>
<path d="M1500 970 c0 -33 4 -60 10 -60 6 0 10 11 10 25 0 21 5 25 30 25 17 0
30 5 30 10 0 6 -13 10 -30 10 -20 0 -30 5 -30 15 0 10 10 15 30 15 17 0 30 5
30 10 0 6 -18 10 -40 10 l-40 0 0 -60z"/>
<path d="M1631 974 c-21 -57 -21 -78 1 -56 15 15 68 16 68 2 0 -5 7 -10 16
-10 9 0 14 4 12 8 -1 4 -12 31 -22 60 -27 70 -47 69 -75 -4z m49 17 c0 -5 3
-16 6 -25 4 -12 0 -16 -15 -16 -22 0 -25 8 -15 34 7 17 24 22 24 7z"/>
<path d="M1772 1018 c-21 -21 -13 -39 23 -54 42 -17 37 -39 -6 -30 -30 6 -40
-8 -13 -18 27 -10 51 -7 65 10 16 20 2 46 -30 54 -30 7 -26 25 5 23 27 -2 33
12 8 21 -24 9 -39 7 -52 -6z"/>
<path d="M1890 970 c0 -33 4 -60 10 -60 6 0 10 11 10 25 0 21 5 25 30 25 25 0
30 -4 30 -25 0 -16 6 -25 15 -25 12 0 15 13 15 60 0 47 -3 60 -15 60 -9 0 -15
-9 -15 -25 0 -21 -5 -25 -30 -25 -25 0 -30 4 -30 25 0 14 -4 25 -10 25 -6 0
-10 -27 -10 -60z"/>
<path d="M2040 970 c0 -33 4 -60 10 -60 6 0 10 27 10 60 0 33 -4 60 -10 60 -6
0 -10 -27 -10 -60z"/>
<path d="M2140 1023 c-21 -7 -40 -34 -40 -55 0 -24 35 -58 60 -58 22 0 70 41
70 60 0 16 -47 60 -62 59 -7 0 -20 -3 -28 -6z m48 -25 c28 -28 1 -75 -38 -63
-14 4 -20 15 -20 35 0 37 33 53 58 28z"/>
<path d="M2260 970 c0 -47 3 -60 15 -60 11 0 15 11 15 38 l1 37 30 -37 c17
-21 35 -38 40 -38 5 0 9 27 9 60 0 33 -4 60 -10 60 -5 0 -10 -17 -10 -37 l-1
-38 -32 38 c-46 53 -57 49 -57 -23z"/>
<path d="M2480 971 l0 -61 39 0 c40 0 68 20 55 41 -4 7 -7 26 -8 43 -1 29 -4
31 -43 34 l-43 3 0 -60z m65 24 c0 -5 -10 -11 -22 -13 -16 -2 -23 2 -23 13 0
11 7 15 23 13 12 -2 22 -7 22 -13z m5 -50 c0 -9 -9 -15 -25 -15 -16 0 -25 6
-25 15 0 9 9 15 25 15 16 0 25 -6 25 -15z"/>
<path d="M2650 1023 c-21 -7 -40 -34 -40 -55 0 -24 35 -58 60 -58 22 0 70 41
70 60 0 16 -47 60 -62 59 -7 0 -20 -3 -28 -6z m48 -25 c28 -28 1 -75 -38 -63
-14 4 -20 15 -20 35 0 37 33 53 58 28z"/>
<path d="M2770 990 c0 -63 43 -95 91 -70 15 8 19 22 19 60 0 28 -4 50 -10 50
-5 0 -10 -17 -10 -39 0 -41 -20 -67 -45 -57 -10 4 -15 19 -15 51 0 33 -4 45
-15 45 -11 0 -15 -11 -15 -40z"/>
<path d="M2920 1020 c0 -5 7 -10 15 -10 11 0 15 -12 15 -50 0 -38 4 -50 15
-50 11 0 15 12 15 50 0 38 4 50 15 50 8 0 15 5 15 10 0 6 -20 10 -45 10 -25 0
-45 -4 -45 -10z"/>
<path d="M3050 970 c0 -33 4 -60 10 -60 6 0 10 27 10 60 0 33 -4 60 -10 60 -6
0 -10 -27 -10 -60z"/>
<path d="M3132 1014 c-51 -35 -14 -104 55 -102 33 1 43 16 43 65 0 23 -34 53
-60 53 -9 0 -26 -7 -38 -16z m66 -16 c18 -18 15 -51 -3 -44 -9 3 -15 0 -15 -9
0 -22 -28 -18 -40 5 -22 40 26 80 58 48z"/>
<path d="M3270 987 c0 -67 54 -102 94 -61 18 17 23 104 6 104 -5 0 -10 -14
-10 -31 0 -17 -5 -39 -10 -50 -23 -41 -60 -10 -60 50 0 17 -4 31 -10 31 -5 0
-10 -20 -10 -43z"/>
<path d="M3420 970 l0 -60 45 0 c51 0 62 17 13 22 -42 4 -50 28 -9 28 37 0 42
17 6 22 -37 4 -35 22 3 26 48 5 39 22 -13 22 l-45 0 0 -60z"/>
</g>
</svg>
