<?xml version="1.0" standalone="no"?>
<!DOCTYPE svg PUBLIC "-//W3C//DTD SVG 20010904//EN"
 "http://www.w3.org/TR/2001/REC-SVG-20010904/DTD/svg10.dtd">
<svg version="1.0" xmlns="http://www.w3.org/2000/svg"
 width="500.000000pt" height="500.000000pt" viewBox="0 0 500.000000 500.000000"
 preserveAspectRatio="xMidYMid meet">

<g transform="translate(0.000000,500.000000) scale(0.100000,-0.100000)"
fill="#000000" stroke="none">
<path d="M1412 4169 c1 -20 -2 -41 -6 -47 -4 -7 0 -15 8 -18 9 -3 16 -15 16
-25 0 -10 5 -19 10 -19 6 0 10 -5 10 -11 0 -5 -4 -7 -10 -4 -13 8 -13 3 0 -30
5 -14 14 -24 19 -20 5 3 13 0 17 -6 4 -8 3 -9 -4 -5 -7 4 -12 3 -12 -3 0 -5 6
-12 13 -14 10 -4 10 -6 0 -6 -7 -1 -13 -6 -13 -12 0 -5 5 -7 10 -4 6 3 10 2
10 -4 0 -5 -4 -13 -10 -16 -5 -3 -10 -11 -10 -16 0 -6 3 -8 8 -5 10 6 7 -58
-4 -76 -6 -11 -5 -11 8 0 14 11 16 10 11 -7 -5 -19 0 -20 174 -17 104 2 183
-1 191 -7 7 -5 16 -7 19 -3 4 4 1 11 -7 16 -8 6 -10 10 -4 10 6 0 17 -6 23
-14 16 -20 57 -15 53 7 -4 22 16 22 20 0 2 -13 13 -18 36 -19 36 0 43 12 37
69 -2 20 1 37 6 37 6 0 9 8 8 18 -2 9 2 26 7 37 6 11 10 50 9 87 -1 37 2 65 7
62 4 -3 8 -1 8 5 0 23 -20 20 -26 -5 -5 -19 -9 -22 -15 -12 -5 7 -9 8 -9 2 0
-6 3 -14 7 -18 13 -12 11 -35 -3 -47 -11 -9 -11 -15 -3 -25 19 -23 -2 -16 -22
8 -22 25 -23 29 -6 26 13 -3 13 3 2 42 -5 19 -4 21 4 10 8 -11 11 -11 11 -2 0
7 -6 15 -14 18 -7 3 -12 16 -10 29 1 14 -2 27 -7 31 -5 3 -9 -4 -9 -15 0 -34
-1 -36 -16 -44 -8 -4 -14 -16 -14 -25 0 -13 -2 -14 -9 -4 -6 11 -10 10 -16 -5
-5 -10 -9 -21 -9 -25 -2 -12 -13 -19 -42 -24 -16 -3 -33 -9 -39 -14 -7 -6 -16
-5 -22 1 -13 13 -36 2 -27 -12 3 -5 10 -6 16 -3 7 4 8 2 4 -4 -11 -19 -31 -14
-42 11 -6 12 -8 15 -6 7 2 -12 1 -12 -9 -3 -9 9 -16 9 -25 2 -9 -8 -10 -2 -4
26 5 20 6 34 3 31 -8 -8 -33 14 -33 28 0 6 5 4 11 -4 9 -13 10 -13 6 0 -2 8
-12 14 -21 14 -10 -1 -16 6 -16 17 0 11 -4 19 -9 19 -15 0 -20 -27 -8 -40 10
-10 8 -12 -6 -7 -10 4 -16 3 -13 -2 3 -5 -6 -17 -19 -27 -24 -18 -36 -42 -15
-29 19 12 10 -8 -14 -30 -14 -13 -27 -20 -30 -17 -3 3 -6 -1 -6 -9 -1 -10 -4
-8 -11 4 -6 10 -8 21 -5 24 3 4 6 1 6 -6 0 -7 4 -9 10 -6 6 4 4 16 -6 31 -9
13 -12 24 -8 24 5 0 1 5 -9 11 -15 9 -16 13 -5 22 7 7 11 11 9 10 -11 -7 -29
20 -24 34 4 11 3 14 -6 9 -7 -5 -10 -23 -8 -49 2 -23 2 -33 0 -22 -3 11 -14
29 -26 40 -12 11 -23 28 -25 38 -2 10 -7 28 -12 40 -7 18 -8 16 -8 -14z m245
-141 c-3 -7 -5 -2 -5 12 0 14 2 19 5 13 2 -7 2 -19 0 -25z m213 -21 c0 -7 -6
-21 -13 -32 -11 -14 -16 -15 -22 -5 -5 9 -4 11 3 6 8 -4 12 0 12 12 0 17 8 32
17 32 2 0 3 -6 3 -13z m-243 -29 c-3 -7 -5 -2 -5 12 0 14 2 19 5 13 2 -7 2
-19 0 -25z m23 -32 c-8 -6 -17 -9 -20 -7 -2 1 -7 -6 -11 -16 -6 -14 -8 -12 -8
11 -1 24 2 27 19 23 17 -4 20 0 21 26 l1 32 7 -30 c5 -22 3 -33 -9 -39z m306
38 c-1 -14 -8 -30 -16 -36 -13 -8 -12 -9 2 -5 10 4 18 -1 21 -12 3 -12 -1 -18
-12 -17 -26 2 -32 23 -17 61 18 42 23 44 22 9z m-236 -29 c-7 -8 -10 -24 -7
-35 3 -11 1 -18 -4 -14 -5 3 -9 -1 -9 -8 0 -9 -3 -9 -10 2 -9 13 -14 7 -11
-12 0 -5 -9 -8 -21 -8 -17 0 -19 3 -10 9 11 7 10 9 -3 14 -13 6 -14 9 -3 21 7
8 17 12 22 9 4 -3 2 -9 -5 -14 -18 -11 0 -10 26 1 18 8 19 9 1 9 -12 1 -16 6
-12 17 3 9 6 20 6 25 0 5 5 9 11 9 6 0 8 -9 3 -22 -6 -21 -6 -21 10 -5 10 9
14 23 10 29 -5 10 -4 10 6 1 11 -10 11 -15 0 -28z m-200 10 c0 -8 -2 -15 -4
-15 -2 0 -6 7 -10 15 -3 8 -1 15 4 15 6 0 10 -7 10 -15z m512 8 c-6 -2 -10 -8
-7 -13 3 -5 -2 -15 -11 -24 -8 -9 -12 -20 -9 -26 3 -5 4 -10 1 -10 -2 0 -13
-3 -23 -7 -16 -6 -16 -5 -4 10 7 9 11 24 7 32 -3 9 0 15 9 15 8 0 15 7 15 15
0 8 8 15 18 14 10 0 12 -3 4 -6z m-437 -21 c-3 -3 -11 0 -18 7 -9 10 -8 11 6
5 10 -3 15 -9 12 -12z m175 -7 c-8 -9 -10 -27 -6 -50 7 -36 -9 -50 -21 -18 -6
15 -7 14 -13 -3 -4 -10 -12 -20 -19 -20 -22 -3 -23 -4 -13 -17 8 -10 6 -13
-11 -14 -15 -2 -18 0 -9 6 8 5 13 11 13 15 -3 24 1 36 12 36 8 0 22 9 32 20
10 11 13 20 7 20 -7 0 -2 11 10 25 23 26 40 27 18 0z m-273 -17 c-3 -7 -5 -2
-5 12 0 14 2 19 5 13 2 -7 2 -19 0 -25z m314 9 c-10 -9 -11 -8 -5 6 3 10 9 15
12 12 3 -3 0 -11 -7 -18z m62 -44 c-16 -13 -16 -13 4 -3 19 8 24 7 33 -11 15
-27 4 -38 -14 -13 -14 18 -15 18 -33 1 -11 -9 -24 -17 -29 -17 -5 0 -3 4 3 8
16 10 26 82 12 82 -6 0 -8 -4 -4 -9 3 -5 2 -12 -3 -15 -4 -2 -8 4 -9 14 -2 28
30 29 45 1 10 -20 10 -26 -5 -38z m-83 43 c0 -3 -4 -8 -10 -11 -5 -3 -10 -1
-10 4 0 6 5 11 10 11 6 0 10 -2 10 -4z m-200 -22 c0 -8 -4 -12 -10 -9 -6 4
-10 -7 -10 -27 0 -23 -3 -29 -9 -19 -5 8 -7 20 -5 28 2 7 6 20 9 28 6 20 25
19 25 -1z m230 -28 c0 -3 -4 -8 -10 -11 -5 -3 -10 -1 -10 4 0 6 5 11 10 11 6
0 10 -2 10 -4z m-186 -14 c2 -4 1 -14 -5 -22 -6 -11 -9 -12 -9 -2 0 7 -4 10
-10 7 -5 -3 -10 1 -10 9 0 17 25 22 34 8z m346 4 c0 -3 -4 -8 -10 -11 -5 -3
-10 -1 -10 4 0 6 5 11 10 11 6 0 10 -2 10 -4z m-86 -34 c3 -5 -1 -9 -9 -9 -8
0 -12 4 -9 9 3 4 7 8 9 8 2 0 6 -4 9 -8z m-244 -12 c0 -5 -5 -10 -11 -10 -5 0
-7 5 -4 10 3 6 8 10 11 10 2 0 4 -4 4 -10z"/>
<path d="M1555 4183 c0 -10 6 -27 13 -38 11 -18 12 -17 7 9 -5 33 -23 57 -20
29z"/>
<path d="M2060 4185 c0 -8 2 -15 4 -15 2 0 6 7 10 15 3 8 1 15 -4 15 -6 0 -10
-7 -10 -15z"/>
<path d="M1806 4173 c-9 -10 -7 -25 3 -19 5 4 12 0 14 -6 4 -8 6 -7 6 4 1 19
-13 31 -23 21z"/>
<path d="M2050 4150 c0 -5 7 -7 15 -4 8 4 15 8 15 10 0 2 -7 4 -15 4 -8 0 -15
-4 -15 -10z"/>
<path d="M1926 4125 c-9 -26 -7 -32 5 -12 6 10 9 21 6 23 -2 3 -7 -2 -11 -11z"/>
<path d="M1798 4095 c9 -14 8 -49 -1 -56 -4 -3 -1 -12 7 -19 13 -10 17 -9 22
5 4 10 1 20 -6 25 -7 4 -9 13 -6 19 4 6 13 8 19 4 8 -5 8 -2 0 9 -7 8 -11 17
-8 19 2 3 -4 5 -15 5 -10 0 -16 -5 -12 -11z"/>
<path d="M1863 4089 c-2 -23 3 -25 10 -4 4 8 3 16 -1 19 -4 3 -9 -4 -9 -15z"/>
<path d="M1306 3654 c-16 -218 -17 -254 -9 -254 5 0 14 46 20 103 18 176 42
198 221 205 64 3 118 0 123 -5 9 -9 -15 -1174 -26 -1279 -8 -69 -29 -87 -107
-92 -36 -3 -55 -8 -47 -12 13 -7 470 -16 494 -10 6 2 -18 6 -53 10 -73 8 -98
27 -104 78 -3 20 1 271 8 557 7 286 13 571 14 634 l0 114 114 -5 c191 -9 224
-39 233 -218 3 -55 10 -100 14 -100 10 0 12 179 3 267 l-7 60 -226 7 c-124 3
-323 9 -442 12 l-217 7 -6 -79z"/>
<path d="M2638 3535 c-2 -3 -46 -9 -96 -14 -69 -7 -105 -17 -142 -37 -57 -31
-89 -61 -55 -51 11 3 39 9 63 12 33 5 42 4 42 -8 0 -36 -126 -202 -260 -342
-103 -107 -102 -103 -34 -188 79 -98 215 -233 294 -292 77 -57 194 -115 231
-115 35 0 159 86 159 110 0 4 -22 5 -50 2 -100 -9 -210 48 -349 182 -76 73
-231 249 -231 262 0 3 50 60 111 127 60 67 135 159 166 203 39 59 66 87 92 98
42 20 91 55 75 56 -6 0 -13 -2 -16 -5z"/>
<path d="M1995 3490 c-27 -4 -58 -10 -67 -14 -22 -10 -24 -56 -3 -56 11 0 15
-13 15 -52 0 -29 7 -172 15 -318 24 -433 20 -499 -29 -557 l-24 -28 92 3 c51
2 104 10 122 18 37 18 107 78 81 70 -10 -3 -50 -9 -88 -13 l-70 -6 22 43 c26
49 26 41 10 585 l-8 280 23 18 c47 36 24 43 -91 27z"/>
<path d="M3282 3395 c-45 -35 -61 -58 -101 -141 -47 -97 -117 -217 -236 -401
-33 -51 -62 -93 -65 -93 -3 0 -35 60 -73 133 -37 72 -109 212 -160 310 l-94
178 -44 -58 -44 -58 -11 -195 c-10 -185 -10 -196 8 -222 11 -16 23 -28 28 -28
4 0 11 48 15 108 4 59 10 139 14 177 l6 70 135 -253 c116 -216 138 -252 155
-247 11 2 29 -4 42 -17 l22 -21 20 24 c11 13 31 54 46 91 21 54 242 408 276
443 5 5 9 -6 9 -30 0 -22 5 -151 12 -287 9 -193 9 -254 -1 -274 -6 -15 -9 -29
-7 -32 10 -9 118 18 170 42 l51 24 -50 1 -50 1 -3 168 c-2 92 -7 271 -10 399
l-7 231 -53 -43z"/>
<path d="M2385 2580 c-3 -5 1 -10 10 -10 9 0 13 5 10 10 -3 6 -8 10 -10 10 -2
0 -7 -4 -10 -10z"/>
<path d="M1150 2165 c0 -12 5 -13 24 -3 47 21 56 7 56 -86 0 -70 -3 -87 -17
-95 -14 -8 -8 -10 27 -10 25 1 37 3 28 6 -16 4 -18 17 -18 99 0 101 2 104 54
84 20 -7 24 -6 19 5 -8 22 -173 22 -173 0z"/>
<path d="M1383 2169 c14 -8 17 -25 17 -94 0 -69 -3 -86 -17 -94 -14 -8 -10
-10 22 -10 22 0 34 3 28 6 -8 3 -13 24 -13 54 l0 50 58 -3 57 -3 3 -36 c2 -24
-3 -42 -13 -53 -15 -15 -13 -16 22 -15 21 0 32 3 26 6 -9 3 -13 33 -13 98 0
65 4 95 13 98 6 3 -5 6 -26 6 -35 1 -37 0 -23 -15 9 -8 16 -29 16 -45 0 -29 0
-29 -60 -29 l-60 0 0 39 c0 22 5 42 13 44 6 3 -6 6 -28 6 -32 0 -36 -2 -22
-10z"/>
<path d="M1653 2169 c14 -8 17 -25 17 -94 0 -69 -3 -86 -17 -94 -13 -8 2 -10
60 -11 73 0 77 1 77 23 0 13 -3 17 -8 10 -4 -6 -25 -13 -47 -15 l-40 -3 -3 48
c-3 46 -3 47 27 47 16 0 32 -6 34 -12 3 -7 6 -4 6 7 1 18 -4 20 -34 17 -34 -4
-35 -4 -35 33 l0 37 50 -4 c35 -2 50 1 50 10 0 8 -22 12 -77 12 -58 -1 -73 -3
-60 -11z"/>
<path d="M1963 2169 c14 -8 17 -25 17 -94 0 -69 -3 -86 -17 -94 -14 -8 -8 -10
27 -10 35 0 41 2 28 10 -12 7 -18 22 -18 49 0 49 13 57 35 22 33 -52 68 -82
94 -81 24 0 25 1 5 9 -22 9 -94 87 -94 102 0 16 62 87 79 91 9 3 -2 5 -24 6
-29 0 -36 -2 -25 -9 12 -8 9 -15 -20 -45 -18 -19 -38 -35 -42 -35 -13 0 -9 78
5 83 6 3 -6 6 -28 6 -32 0 -36 -2 -22 -10z"/>
<path d="M2198 2173 c8 -3 12 -33 12 -98 0 -65 -4 -95 -12 -98 -7 -3 4 -6 25
-6 35 -1 37 0 23 15 -12 11 -16 35 -16 89 0 54 4 78 16 89 14 15 12 16 -23 15
-21 0 -32 -3 -25 -6z"/>
<path d="M2334 2164 c12 -11 16 -35 16 -89 0 -54 -4 -78 -16 -89 -14 -15 -12
-16 21 -16 33 0 35 1 21 16 -12 11 -16 35 -16 85 0 39 4 68 9 65 4 -3 32 -42
61 -86 29 -44 56 -80 61 -80 5 0 9 43 9 95 0 79 3 96 18 104 13 8 9 10 -23 10
-22 0 -34 -3 -27 -6 8 -3 12 -29 12 -81 l0 -77 -36 50 c-20 28 -43 65 -52 83
-12 25 -22 32 -45 32 -26 0 -27 -1 -13 -16z"/>
<path d="M2634 2161 c-36 -22 -57 -71 -48 -110 14 -59 70 -90 140 -77 29 6 34
11 34 34 0 16 5 33 12 40 9 9 3 12 -27 12 -32 -1 -37 -3 -22 -11 9 -5 17 -21
17 -34 0 -23 -4 -25 -44 -25 -36 0 -48 5 -65 26 -28 35 -28 97 -1 124 23 23
98 28 118 8 9 -9 12 -8 12 4 0 33 -78 38 -126 9z"/>
<path d="M2852 2170 c15 -9 17 -22 11 -93 -4 -57 -10 -86 -21 -94 -13 -11 -10
-13 24 -12 21 0 33 3 27 6 -9 3 -13 30 -13 86 0 44 3 77 7 73 5 -4 20 -40 34
-79 14 -39 31 -73 36 -74 6 -2 26 33 44 79 l34 83 7 -75 c7 -65 6 -77 -9 -87
-14 -11 -10 -13 28 -12 24 1 37 3 28 6 -27 7 -41 186 -16 197 6 3 -1 4 -17 3
-26 -2 -31 -9 -55 -75 -14 -41 -31 -74 -36 -74 -5 0 -22 33 -36 74 -25 70 -28
73 -60 76 -27 2 -31 0 -17 -8z"/>
<path d="M3233 2168 c-5 -7 -25 -50 -43 -96 -18 -45 -40 -87 -49 -92 -12 -7
-6 -9 24 -10 27 0 36 3 26 9 -11 7 -12 17 -5 43 8 29 14 33 47 36 35 3 39 1
53 -34 13 -30 13 -38 2 -45 -8 -6 2 -9 27 -9 30 1 36 3 24 10 -9 5 -31 49 -49
97 -37 100 -43 109 -57 91z m11 -96 c-35 -5 -38 1 -23 43 l14 37 17 -38 17
-39 -25 -3z"/>
<path d="M3403 2169 c14 -8 17 -25 17 -94 0 -69 -3 -86 -17 -94 -14 -8 -8 -10
27 -10 35 0 41 2 28 10 -12 7 -18 22 -18 49 0 49 13 57 35 22 33 -52 68 -82
94 -81 24 0 25 1 5 9 -22 9 -94 87 -94 102 0 16 62 87 79 91 9 3 -2 5 -24 6
-29 0 -36 -2 -25 -9 12 -8 9 -15 -20 -45 -18 -19 -38 -35 -42 -35 -13 0 -9 78
5 83 6 3 -6 6 -28 6 -32 0 -36 -2 -22 -10z"/>
<path d="M3638 2173 c8 -3 12 -33 12 -98 0 -65 -4 -95 -12 -99 -7 -3 21 -4 62
-3 66 2 75 4 79 22 3 15 0 17 -10 8 -8 -6 -28 -14 -45 -17 -39 -9 -57 10 -52
56 2 26 8 34 26 36 13 2 30 -2 38 -8 12 -10 14 -8 14 16 0 22 -3 25 -12 16 -7
-7 -25 -12 -41 -12 -26 0 -28 3 -25 33 3 31 4 32 51 32 31 0 47 4 47 13 0 8
-21 12 -72 11 -40 0 -67 -3 -60 -6z"/>
<path d="M3848 2173 c8 -3 12 -33 12 -98 0 -65 -4 -95 -12 -98 -7 -3 5 -6 27
-6 32 0 36 2 23 10 -13 7 -18 22 -18 50 0 52 16 49 62 -11 25 -33 41 -46 63
-47 26 -2 27 -1 9 6 -12 5 -35 27 -53 48 l-31 38 25 18 c57 42 17 98 -70 96
-27 0 -44 -3 -37 -6z m86 -13 c18 -6 26 -17 26 -33 0 -31 -18 -47 -52 -47 -26
0 -28 3 -28 38 0 54 8 60 54 42z"/>
</g>
</svg>
